<?xml version="1.0" encoding="UTF-8"?>
<svg version="1.1" xmlns="http://www.w3.org/2000/svg" width="512" height="512">
<path d="M0 0 C1.91995285 0.00323273 1.91995285 0.00323273 3.87869263 0.00653076 C22.95001618 0.0580254 41.67410657 0.47164512 60.5625 3.3125 C61.23853271 3.41195923 61.91456543 3.51141846 62.61108398 3.6138916 C124.72856552 12.77165007 195.78765522 31.58660499 235.85205078 83.99951172 C247.22662634 99.45857466 257.0228909 118.62937282 254.5625 138.3125 C253.33177967 141.98512574 251.6876688 145.08470738 249.5625 148.3125 C248.964375 149.240625 248.36625 150.16875 247.75 151.125 C245.6326625 153.2423375 244.12531423 154.03760491 241.49658203 155.34399414 C239.05582623 156.85637215 237.80495018 157.66623025 236.78729248 160.37887573 C236.4690119 162.94673202 236.40103887 165.40856993 236.4296875 167.99609375 C236.41109177 169.39578148 236.41109177 169.39578148 236.39212036 170.82374573 C236.37794176 172.79301795 236.38424285 174.76253032 236.40966797 176.73168945 C236.43741095 179.74034329 236.36932254 182.73654021 236.29296875 185.74414062 C235.842638 195.45938151 235.842638 195.45938151 239.74731445 203.8581543 C242.34071494 205.47664073 242.34071494 205.47664073 245.07885742 206.37353516 C250.33168434 208.35941664 252.73074407 213.71251127 255.19921875 218.4609375 C257.0447564 222.91717781 257.01714579 227.23392349 256.9375 232 C256.92009766 233.33272949 256.92009766 233.33272949 256.90234375 234.69238281 C256.42760431 253.84253422 248.13085573 269.2265747 234.5625 282.3125 C233.61310547 283.30830078 233.61310547 283.30830078 232.64453125 284.32421875 C228.55394683 288.34256327 223.86976431 290.95621483 218.8125 293.5625 C218.18126221 293.89217773 217.55002441 294.22185547 216.8996582 294.56152344 C205.7224607 300.04007453 194.40514527 300.75029071 182.16650391 300.69345093 C180.53127544 300.69691337 178.89604932 300.70168186 177.26082802 300.70763266 C172.79601997 300.7200917 168.33140568 300.71399562 163.86659718 300.70467401 C159.04034461 300.69786287 154.21412446 300.70837495 149.38787842 300.71661377 C139.94457285 300.72993131 130.50133894 300.72708219 121.05803061 300.71837585 C113.38106799 300.71159192 105.7041254 300.71068565 98.02716064 300.7139473 C96.93320815 300.714407 95.83925565 300.71486669 94.71215308 300.71534032 C92.48958825 300.71629953 90.26702344 300.71727217 88.04445863 300.7182581 C67.21906291 300.72680619 46.39370686 300.71698696 25.56831765 300.700857 C7.71154087 300.68745435 -10.1451774 300.68978261 -28.00195312 300.70361328 C-48.75445582 300.71967934 -69.50692379 300.72598227 -90.25943184 300.71677649 C-92.47367477 300.71582087 -94.6879177 300.71487776 -96.90216064 300.7139473 C-98.53619955 300.71325306 -98.53619955 300.71325306 -100.20324934 300.71254479 C-107.86815373 300.70995798 -115.53303604 300.71431923 -123.19793701 300.72138596 C-132.54294579 300.72981254 -141.887879 300.72749644 -151.23287916 300.71154372 C-155.99791846 300.70367663 -160.7628319 300.70054274 -165.52787018 300.71049118 C-169.89510523 300.71947097 -174.26209849 300.71445142 -178.6293118 300.69855852 C-180.20385096 300.69522458 -181.7784108 300.69687334 -183.35293651 300.70418589 C-195.47401502 300.75613408 -206.53081586 299.37506597 -217.4375 293.8125 C-218.109021 293.47283203 -218.78054199 293.13316406 -219.47241211 292.78320312 C-226.51613741 289.02744227 -231.93149266 284.02149378 -237.4375 278.3125 C-238.10136719 277.67957031 -238.76523438 277.04664063 -239.44921875 276.39453125 C-251.51652924 264.11028034 -256.00915702 246.3750738 -255.99829102 229.68798828 C-255.72190056 221.252071 -253.38387133 214.71795703 -247.69140625 208.36328125 C-244.27612069 205.22182705 -240.5898794 203.3679278 -236.4375 201.3125 C-236.21452852 195.29874962 -236.05148895 189.28741662 -235.94311523 183.27050781 C-235.89793299 181.22548509 -235.83657019 179.18075188 -235.75854492 177.13671875 C-235.64897668 174.19198281 -235.59825914 171.25109387 -235.55859375 168.3046875 C-235.4889164 166.9402803 -235.4889164 166.9402803 -235.41783142 165.54830933 C-235.41570367 162.85507852 -235.51810193 160.84857549 -236.4375 158.3125 C-238.58706602 156.29209231 -240.70791908 154.91978243 -243.29251099 153.50602722 C-245.96295134 152.02012532 -247.30705126 150.35084079 -248.875 147.75 C-249.32746094 147.02683594 -249.77992188 146.30367187 -250.24609375 145.55859375 C-254.85466932 136.87029554 -254.65612342 127.85058716 -252.05200195 118.42797852 C-246.24280036 99.61096595 -235.89338688 84.58165477 -222.4375 70.3125 C-221.79554688 69.61769531 -221.15359375 68.92289062 -220.4921875 68.20703125 C-214.74531966 62.17406393 -214.74531966 62.17406393 -210.4375 61.3125 C-206.11251957 61.38973179 -204.02477153 61.86566297 -200.5625 64.5 C-198.17416922 67.66102603 -197.51957226 69.37303142 -197.4375 73.3125 C-198.73563178 77.9967225 -201.54319246 80.65792153 -205 83.875 C-217.61683942 96.1285471 -229.80727944 113.10629222 -231.875 131.125 C-231.68205982 134.35644254 -231.68205982 134.35644254 -229.75 136.6875 C-225.268249 139.83683854 -220.17595461 139.45668756 -214.87367344 139.44113445 C-214.11668713 139.44288749 -213.35970083 139.44464053 -212.57977554 139.44644669 C-210.03473796 139.45111098 -207.48975739 139.44864008 -204.94471741 139.44621277 C-203.10501685 139.44808052 -201.26531669 139.45038108 -199.42561716 139.45307809 C-194.36339115 139.45920684 -189.30118163 139.45906124 -184.23895276 139.45788372 C-178.78215792 139.45767998 -173.32536841 139.4631958 -167.86857605 139.46794128 C-157.17571462 139.47625401 -146.4828587 139.4789964 -135.78999431 139.47955366 C-127.10118536 139.48002848 -118.41237824 139.48208148 -109.72356987 139.48525429 C-85.10296608 139.49406213 -60.48236639 139.49867946 -35.86176104 139.49792381 C-35.19810883 139.49790387 -34.53445663 139.49788392 -33.85069374 139.49786337 C-32.50862777 139.49782294 -31.16656179 139.49778114 -29.82449581 139.49773798 C-8.93873569 139.49712507 11.9470082 139.50463462 32.83276367 139.51831055 C56.29271779 139.53366569 79.75266302 139.54226446 103.2126227 139.54134732 C115.63627742 139.54101492 128.05991384 139.5437811 140.48356438 139.55452538 C151.05931259 139.56361278 161.63503419 139.56582011 172.21078461 139.55901595 C177.60891659 139.55574198 183.00699748 139.5557256 188.40512466 139.5643692 C193.34404927 139.57219638 198.28288195 139.57084171 203.22180421 139.56208507 C205.0111175 139.56054172 206.80043753 139.56239745 208.58974289 139.56794515 C211.01755149 139.57497559 213.44503494 139.569735 215.8728323 139.56138897 C216.57117905 139.56635715 217.26952579 139.57132533 217.98903456 139.57644406 C222.93653315 139.54036671 227.215822 138.7987294 231.4375 136.125 C233.23154892 133.23458784 232.74091932 130.65786219 232.5625 127.3125 C225.0959538 98.89997906 203.44218346 78.14110608 178.88452148 63.5769043 C164.97990487 55.58410133 150.46228833 49.1949732 135.5625 43.3125 C135.995625 44.48425781 136.42875 45.65601563 136.875 46.86328125 C141.21803063 58.95546417 143.86894164 68.41259778 138.8203125 80.8046875 C134.81266293 88.79509441 128.40064344 93.43099977 120.1875 96.625 C111.02287192 98.36311912 102.22967031 97.72363118 94.109375 92.8359375 C85.03776009 86.25751476 81.60694414 77.54097791 77.91796875 67.2265625 C77.50331863 66.08843109 77.08866852 64.95029968 76.66145325 63.77767944 C75.79253289 61.38736616 74.92799401 58.99545603 74.06762695 56.60205078 C72.74554791 52.92511796 71.41008704 49.2532621 70.07226562 45.58203125 C69.22838866 43.25549038 68.38526277 40.92867692 67.54296875 38.6015625 C66.94309395 36.94853622 66.94309395 36.94853622 66.33110046 35.26211548 C65.96684464 34.24700897 65.60258881 33.23190247 65.22729492 32.18603516 C64.90484299 31.2908316 64.58239105 30.39562805 64.25016785 29.47329712 C63.5625 27.3125 63.5625 27.3125 63.5625 25.3125 C62.87929688 25.26351562 62.19609375 25.21453125 61.4921875 25.1640625 C50.50349408 24.34904432 39.53422301 23.32738807 28.5625 22.3125 C30.76882224 30.06627142 33.41462318 37.6202297 36.1875 45.1875 C36.99398489 47.39257262 37.79874772 49.59827603 38.6015625 51.8046875 C39.13064209 53.24884033 39.13064209 53.24884033 39.67041016 54.72216797 C42.74769847 63.65758917 42.39311101 72.03509115 38.8203125 80.8046875 C34.81266293 88.79509441 28.40064344 93.43099977 20.1875 96.625 C11.02287192 98.36311912 2.22967031 97.72363118 -5.890625 92.8359375 C-15.17134649 86.10587788 -18.54222311 77.12002042 -22.30078125 66.5703125 C-22.73762741 65.36559296 -23.17447357 64.16087341 -23.6245575 62.91964722 C-24.54191242 60.38853679 -25.45321708 57.8553654 -26.35961914 55.3203125 C-27.52226425 52.06890295 -28.69592334 48.82160993 -29.8735323 45.57559395 C-30.99913062 42.47111336 -32.11876313 39.36448996 -33.23828125 36.2578125 C-33.66007156 35.09017365 -34.08186188 33.92253479 -34.51643372 32.71951294 C-34.9007103 31.64434418 -35.28498688 30.56917542 -35.6809082 29.46142578 C-36.02112503 28.51292755 -36.36134186 27.56442932 -36.71186829 26.58718872 C-37.4375 24.3125 -37.4375 24.3125 -37.4375 22.3125 C-38.0975 22.6425 -38.7575 22.9725 -39.4375 23.3125 C-41.24937723 23.60287429 -43.06882872 23.84669139 -44.890625 24.06640625 C-45.98503906 24.19853516 -47.07945312 24.33066406 -48.20703125 24.46679688 C-49.92986328 24.66885742 -49.92986328 24.66885742 -51.6875 24.875 C-52.82058594 25.01357422 -53.95367187 25.15214844 -55.12109375 25.29492188 C-60.26720999 25.90726748 -65.2482647 26.3892096 -70.4375 26.3125 C-70.10951416 27.23063477 -69.78152832 28.14876953 -69.44360352 29.09472656 C-68.22474161 32.50827527 -67.0083631 35.92270452 -65.79272461 39.33740234 C-65.26670715 40.81388006 -64.74002069 42.29011962 -64.21264648 43.76611328 C-63.45379543 45.89032406 -62.69737132 48.01538572 -61.94140625 50.140625 C-61.70595596 50.79806702 -61.47050568 51.45550903 -61.22792053 52.13287354 C-57.68410548 62.11855181 -57.10232774 70.79662262 -61.1796875 80.8046875 C-64.85753912 88.13754694 -70.74792176 93.14933362 -78.41015625 96.0625 C-86.90485142 98.49438092 -95.35988204 97.88846274 -103.4375 94.3125 C-112.85672349 88.65198095 -117.25368031 80.80276013 -120.76953125 70.65625 C-121.19174202 69.47464294 -121.19174202 69.47464294 -121.6224823 68.26916504 C-122.50725165 65.78667317 -123.37882111 63.29978934 -124.25 60.8125 C-124.85264351 59.1142736 -125.45615156 57.41635373 -126.06054688 55.71875 C-127.52953589 51.58680482 -128.98671737 47.45087097 -130.4375 43.3125 C-133.32417823 43.27447485 -133.32417823 43.27447485 -135.7421875 43.48828125 C-142.73144813 43.86005043 -142.73144813 43.86005043 -146.5 40.9375 C-149.32774412 37.1063628 -149.89757959 35.09732779 -149.4375 30.3125 C-146.82782195 25.5168328 -144.87324657 23.53263292 -139.6875 21.875 C-138.43582031 21.4728125 -137.18414062 21.070625 -135.89453125 20.65625 C-134.83613037 20.33720703 -134.83613037 20.33720703 -133.75634766 20.01171875 C-131.229645 19.24982399 -128.71541272 18.45212865 -126.19921875 17.65625 C-105.84838089 11.35419013 -85.07058471 7.12637988 -64 4.0625 C-62.96133789 3.91143799 -61.92267578 3.76037598 -60.85253906 3.60473633 C-57.38476251 3.12988555 -53.91496776 2.7106095 -50.4375 2.3125 C-49.68514069 2.22529694 -48.93278137 2.13809387 -48.15762329 2.04824829 C-32.10430329 0.2396168 -16.1435874 -0.04897512 0 0 Z M-9.375 20.8125 C-11.09009766 20.95171875 -11.09009766 20.95171875 -12.83984375 21.09375 C-13.69707031 21.1659375 -14.55429688 21.238125 -15.4375 21.3125 C-11.72274198 32.91319485 -7.79096613 44.44027672 -3.58462524 55.8722229 C-3.11432724 57.15812481 -2.65035176 58.44635803 -2.19296265 59.73690796 C1.12439977 69.592915 1.12439977 69.592915 8.5625 76.3125 C12.53110664 76.38092425 14.66415788 75.92715514 17.9375 73.6875 C20.03656267 70.61963917 20.63646818 67.97204817 20.5625 64.3125 C19.73930886 60.75626385 18.46542973 57.40845493 17.16015625 54.00390625 C16.80360458 53.03718491 16.44705292 52.07046356 16.07969666 51.07444763 C14.94277485 48.00228426 13.78428905 44.93878382 12.625 41.875 C11.84817026 39.78764439 11.07276339 37.69975866 10.29882812 35.61132812 C8.40315792 30.50546281 6.48974054 25.40652681 4.5625 20.3125 C-0.11720546 20.29299107 -4.71021927 20.42777582 -9.375 20.8125 Z M87.5625 30.3125 C89.19134706 35.01056687 90.82734111 39.70606286 92.46972656 44.39941406 C93.02633889 45.99314416 93.58106379 47.58753485 94.13378906 49.18261719 C94.93307346 51.48813426 95.73933613 53.79111309 96.546875 56.09375 C96.78871521 56.79616821 97.03055542 57.49858643 97.27972412 58.22229004 C100.8119801 68.85791915 100.8119801 68.85791915 108.5625 76.3125 C112.46407776 76.3125 114.7103075 75.89557908 117.9375 73.6875 C120.10599757 70.5181574 120.28004292 68.13234865 120.5625 64.3125 C119.6348712 60.06852016 118.13765792 56.06192664 116.64013672 51.98632812 C115.93704565 50.061256 115.27015265 48.1261205 114.60546875 46.1875 C114.16589844 44.96546875 113.72632813 43.7434375 113.2734375 42.484375 C112.87431152 41.3715918 112.47518555 40.25880859 112.06396484 39.11230469 C110.31084466 35.8432344 108.89012295 34.85739893 105.5625 33.3125 C102.39611376 32.3173489 102.39611376 32.3173489 99.0625 31.625 C97.9590625 31.37363281 96.855625 31.12226563 95.71875 30.86328125 C92.90037493 30.37146085 90.40879463 30.26995043 87.5625 30.3125 Z M-103.1875 33.3125 C-103.88488281 33.50328125 -104.58226562 33.6940625 -105.30078125 33.890625 C-107.01426318 34.3600721 -108.72605524 34.83567957 -110.4375 35.3125 C-108.43962086 41.0869232 -106.41862872 46.85278756 -104.38232422 52.61376953 C-103.51916866 55.0792273 -102.68037319 57.55148363 -101.84765625 60.02734375 C-101.35757591 61.43517635 -100.86673593 62.84274482 -100.375 64.25 C-99.95089844 65.49652344 -99.52679688 66.74304688 -99.08984375 68.02734375 C-97.02601867 72.13059881 -95.22297782 73.74673326 -91.4375 76.3125 C-87.46889336 76.38092425 -85.33584212 75.92715514 -82.0625 73.6875 C-79.87057163 70.48391238 -79.67976306 68.1864954 -79.4375 64.3125 C-80.15722164 61.52697985 -80.92806696 59.06635915 -81.96484375 56.41015625 C-82.23261124 55.6875914 -82.50037872 54.96502655 -82.77626038 54.2205658 C-83.62785311 51.93289866 -84.50095299 49.65416971 -85.375 47.375 C-85.95912684 45.81759833 -86.54182431 44.25965975 -87.12304688 42.70117188 C-88.544738 38.89853744 -89.98576413 35.1037604 -91.4375 31.3125 C-95.64693842 31.3125 -99.18037255 32.1914133 -103.1875 33.3125 Z M-215.4375 160.3125 C-215.4375 173.5125 -215.4375 186.7125 -215.4375 200.3125 C-179.1375 200.3125 -142.8375 200.3125 -105.4375 200.3125 C-107.4175 198.0025 -109.3975 195.6925 -111.4375 193.3125 C-112.33181454 192.06082073 -113.20250698 190.79089836 -114.02124023 189.48852539 C-121.74221741 177.74061522 -132.11799449 163.50523121 -146.40925598 159.80149841 C-168.61755759 155.44523286 -193.15350027 158.51354705 -215.4375 160.3125 Z M-113.4375 160.3125 C-108.92075275 165.6495587 -108.92075275 165.6495587 -104.1723938 170.69786072 C-103.60039749 171.27123169 -103.02840118 171.84460266 -102.43907166 172.43534851 C-101.83414383 173.03668106 -101.229216 173.63801361 -100.60595703 174.25756836 C-99.95159164 174.91207977 -99.29722626 175.56659119 -98.62303162 176.24093628 C-96.48282311 178.38045414 -94.33910617 180.51641876 -92.1953125 182.65234375 C-90.70151251 184.14427655 -89.20793472 185.63643186 -87.71456909 187.12879944 C-83.80087761 191.03868949 -79.88419135 194.94556594 -75.96685791 198.85180664 C-71.96305912 202.84534006 -67.96212187 206.84173809 -63.9609375 210.83789062 C-56.12257787 218.66555485 -48.28104907 226.49003599 -40.4375 234.3125 C-37.55744436 233.00646403 -35.49235968 231.61693592 -33.26104736 229.38328552 C-32.65814377 228.78457642 -32.05524017 228.18586731 -31.43406677 227.5690155 C-30.78454544 226.91387466 -30.13502411 226.25873383 -29.46582031 225.58374023 C-28.7727327 224.89255096 -28.07964508 224.20136169 -27.36555481 223.48922729 C-25.07733051 221.20470611 -22.79638273 218.91306738 -20.515625 216.62109375 C-18.92986901 215.03414587 -17.34374342 213.44756723 -15.75726318 211.86134338 C-12.43549107 208.53800734 -9.11710632 205.21133788 -5.80126953 201.88208008 C-1.54000956 197.60379586 2.72783845 193.33215878 6.99799728 189.06275845 C10.27180961 185.78867495 13.543015 182.51199757 16.8133316 179.23442268 C18.38688997 177.65767154 19.96106411 176.08153469 21.53585052 174.50601006 C23.72923472 172.3104707 25.91930173 170.1116784 28.10839844 167.91186523 C29.09482582 166.92611763 29.09482582 166.92611763 30.10118103 165.92045593 C33.11926312 163.49210137 33.11926312 163.49210137 34.5625 160.3125 C-14.2775 160.3125 -63.1175 160.3125 -113.4375 160.3125 Z M38 184.8125 C37.45601185 185.39843304 36.9120237 185.98436607 36.35155106 186.58805466 C29.5299043 193.97577446 22.9515284 201.54703705 16.5625 209.3125 C18.30010147 213.02963736 20.41926878 215.39991012 23.3515625 218.296875 C23.81484955 218.75733215 24.2781366 219.21778931 24.75546265 219.69219971 C26.22815898 221.15375078 27.70767403 222.60817168 29.1875 224.0625 C30.19056322 225.05552611 31.19317257 226.04901089 32.1953125 227.04296875 C34.64580835 229.47147941 37.1024667 231.89364675 39.5625 234.3125 C42.44255564 233.00646403 44.50764032 231.61693592 46.73895264 229.38328552 C47.34185623 228.78457642 47.94475983 228.18586731 48.56593323 227.5690155 C49.21545456 226.91387466 49.86497589 226.25873383 50.53417969 225.58374023 C51.2272673 224.89255096 51.92035492 224.20136169 52.63444519 223.48922729 C54.92266949 221.20470611 57.20361727 218.91306738 59.484375 216.62109375 C61.07013099 215.03414587 62.65625658 213.44756723 64.24273682 211.86134338 C67.56450893 208.53800734 70.88289368 205.21133788 74.19873047 201.88208008 C78.45999044 197.60379586 82.72783845 193.33215878 86.99799728 189.06275845 C90.27180961 185.78867495 93.543015 182.51199757 96.8133316 179.23442268 C98.38688997 177.65767154 99.96106411 176.08153469 101.53585052 174.50601006 C103.72923472 172.3104707 105.91930173 170.1116784 108.10839844 167.91186523 C109.09482582 166.92611763 109.09482582 166.92611763 110.10118103 165.92045593 C113.11926312 163.49210137 113.11926312 163.49210137 114.5625 160.3125 C80.26484701 153.14418024 61.15173229 159.86257491 38 184.8125 Z M106.5625 199.3125 C106.5625 199.6425 106.5625 199.9725 106.5625 200.3125 C142.8625 200.3125 179.1625 200.3125 216.5625 200.3125 C216.5625 187.1125 216.5625 173.9125 216.5625 160.3125 C205.51272531 159.24257699 194.57609356 158.32745701 183.5 157.875 C182.69009991 157.84176258 181.88019981 157.80852516 181.04575729 157.77428055 C145.71247625 156.49468775 125.81667542 168.57630753 106.5625 199.3125 Z M-232.4375 223.3125 C-235.87118162 228.46302244 -235.02968309 234.3113044 -234.4375 240.3125 C-230.96614666 253.6466684 -223.36762501 265.10751582 -211.6875 272.5 C-198.15795415 280.16674265 -185.44857283 280.46393343 -170.206604 280.44621277 C-168.67352485 280.44808359 -167.14044617 280.45038537 -165.60736823 280.45307809 C-161.41559937 280.45916891 -157.22385054 280.45906572 -153.03207827 280.45788372 C-148.50297014 280.45767902 -143.97386834 280.46320501 -139.44476318 280.46794128 C-130.57939435 280.47623336 -121.71403217 280.47899547 -112.84865978 280.47955366 C-105.63982568 280.48002949 -98.43099376 280.48208755 -91.22216034 280.48525429 C-70.76659943 280.49405675 -50.31104376 280.49867428 -29.85548094 280.49792381 C-28.75365074 280.49788386 -27.65182055 280.4978439 -26.51660156 280.49780273 C-25.41342023 280.49776185 -24.31023889 280.49772097 -23.17362782 280.49767885 C-5.29730026 280.49727245 12.57900624 280.50684165 30.45532772 280.5209411 C48.82745501 280.53531684 67.19957204 280.54221063 85.5717051 280.54134732 C95.8794953 280.54101578 106.1872634 280.54374425 116.49504852 280.55452538 C125.27130049 280.56364611 134.04752036 280.56579269 142.82377502 280.55901595 C147.29739004 280.55575876 151.77094351 280.55566506 156.24455261 280.5643692 C160.34792814 280.57227057 164.45119368 280.57076593 168.55456665 280.56208507 C170.0309544 280.56055806 171.5073505 280.56233576 172.98372838 280.56794515 C192.29052052 280.63638208 208.06970779 278.55674623 222.4453125 264.62890625 C231.54298184 254.67518316 235.99707899 243.05950634 235.9140625 229.65234375 C235.51823636 225.86634112 235.51823636 225.86634112 233.3125 223 C229.21464784 220.4854089 225.73771444 220.17035171 220.97755432 219.94326782 C219.83913086 219.88842224 218.7007074 219.83357666 217.52778625 219.77706909 C216.28184189 219.72253571 215.03589752 219.66800232 213.75219727 219.61181641 C212.43579254 219.55223755 211.11938782 219.49265869 209.76309204 219.43127441 C197.51288264 218.89441419 185.25759032 218.57260127 172.99867344 218.31331825 C164.7834442 218.13509578 156.58235133 217.88828294 148.37573242 217.46630859 C106.55147479 214.08279759 106.55147479 214.08279759 70.12877941 231.09643364 C62.45738821 238.52974332 55.77261973 246.81088074 49.83964443 255.68330956 C48.05578398 257.95889275 46.24248837 259.14905325 43.43359375 259.82421875 C39.48108384 260.10971304 36.60490971 260.04309304 33.2878418 257.71826172 C32.53672119 257.00428223 31.78560059 256.29030273 31.01171875 255.5546875 C29.71488159 254.33060181 29.71488159 254.33060181 28.3918457 253.08178711 C27.45816162 252.16792236 26.52447754 251.25405762 25.5625 250.3125 C25.06567719 249.82677521 24.56885437 249.34105042 24.05697632 248.84060669 C20.31847842 245.17534766 16.624716 241.46672709 12.9375 237.75 C11.82706039 236.63452917 10.71638462 235.51929339 9.60546875 234.40429688 C6.92175841 231.70972369 4.24123064 229.01202327 1.5625 226.3125 C-1.27819803 227.60293532 -3.3195815 228.9506079 -5.50610352 231.16992188 C-6.07672012 231.74391724 -6.64733673 232.3179126 -7.23524475 232.90930176 C-7.83952805 233.52704468 -8.44381134 234.1447876 -9.06640625 234.78125 C-9.69731674 235.41736206 -10.32822723 236.05347412 -10.97825623 236.7088623 C-12.99031848 238.73871141 -14.9955622 240.77512374 -17 242.8125 C-19.00886121 244.84899838 -21.01916774 246.884015 -23.03245544 248.9161377 C-24.28398907 250.17990605 -25.53283972 251.44633833 -26.77870178 252.71569824 C-27.62989845 253.57669128 -27.62989845 253.57669128 -28.49829102 254.45507812 C-28.99474625 254.95978638 -29.49120148 255.46449463 -30.00270081 255.98449707 C-32.90478281 258.6705687 -35.12992231 259.72045988 -39 260 C-44.95802121 259.74807499 -47.50132819 257.20679035 -51.73678589 253.26022339 C-54.19993157 250.57179661 -56.14841328 247.92455377 -58.14534283 244.89779949 C-65.53645481 233.80576446 -74.59135622 222.93229223 -87.95400238 219.37685394 C-107.93171501 215.80218472 -128.82660714 217.17668692 -149.00139391 217.9820677 C-157.24043694 218.30362464 -165.47942521 218.42851638 -173.72344959 218.5471133 C-185.88123092 218.7306377 -198.04091645 218.97260676 -210.19194412 219.42437553 C-212.11159345 219.49354555 -214.03168836 219.54998632 -215.95176697 219.60598755 C-222.10117113 219.85928459 -227.06987196 220.17104609 -232.4375 223.3125 Z " fill="#000000" transform="translate(255.4375,105.6875)"/>
<path d="M0 0 C3.125 1.875 3.125 1.875 5 5 C5.98876625 10.02622846 5.7769173 13.70513784 3.125 18.125 C-1.29486216 20.7769173 -4.97377154 20.98876625 -10 20 C-13.125 18.125 -13.125 18.125 -15 15 C-15.98876625 9.97377154 -15.7769173 6.29486216 -13.125 1.875 C-8.70513784 -0.7769173 -5.02622846 -0.98876625 0 0 Z " fill="#000000" transform="translate(85,145)"/>
</svg>
